<svg width="125" height="125" viewBox="0 0 125 125" fill="none" xmlns="http://www.w3.org/2000/svg">
<path fill-rule="evenodd" clip-rule="evenodd" d="M125 62.5C125 97.0178 97.0178 125 62.5 125C27.9822 125 0 97.0178 0 62.5C0 27.9822 27.9822 0 62.5 0C97.0178 0 125 27.9822 125 62.5ZM64.5811 119.755C63.8905 119.779 63.1967 119.792 62.5 119.792C61.894 119.792 61.2903 119.782 60.6889 119.764C56.6232 116.301 52.9716 112.904 49.7198 109.557C46.8766 108.785 44.1408 107.763 41.5393 106.515C45.0943 110.692 49.2223 114.897 53.9296 119.155C31.7199 115.823 13.6815 99.7433 7.50212 78.6021C11.5354 80.7115 15.469 82.6117 19.3218 84.3021C18.5047 82.5721 17.7941 80.7846 17.198 78.9475C13.637 77.2817 9.99077 75.4328 6.24369 73.3987C5.56416 69.8703 5.20833 66.2267 5.20833 62.5C5.20833 56.7423 6.05769 51.1829 7.63794 45.9403C10.9925 47.4753 14.276 48.8802 17.4997 50.1548C17.9395 48.8907 18.4338 47.6511 18.98 46.4387C15.707 45.1449 12.3626 43.7104 8.93381 42.134C16.4148 22.4688 34.4138 7.98855 56.0576 5.56652C50.5582 11.7232 45.7271 17.6688 41.6106 23.4509C43.8414 22.3857 46.1705 21.4857 48.5811 20.7674C52.4316 15.769 56.8329 10.5954 61.7751 5.21283C62.0164 5.20983 62.258 5.20833 62.5 5.20833C62.83 5.20833 63.1593 5.21112 63.4879 5.21668C68.4623 10.6346 72.8887 15.8406 76.7569 20.8694C79.1896 21.6138 81.538 22.5436 83.7845 23.6419C79.6459 17.8101 74.7791 11.8123 69.2314 5.5996C90.3885 8.07575 108.023 22.0794 115.686 41.1614C112.278 42.8213 108.949 44.3368 105.683 45.7082C106.251 46.911 106.767 48.1416 107.229 49.3973C110.447 48.0461 113.717 46.5616 117.052 44.9449C118.831 50.4772 119.792 56.3764 119.792 62.5C119.792 66.2288 119.435 69.8744 118.755 73.4046C114.995 75.5128 111.328 77.4254 107.738 79.1427C107.126 81.0017 106.396 82.8095 105.557 84.5577C109.455 82.8191 113.421 80.856 117.478 78.6712C111.308 99.6793 93.4248 115.676 71.3825 119.107C76.1485 114.793 80.3195 110.533 83.9022 106.3C81.2768 107.593 78.5115 108.655 75.6343 109.459C72.3615 112.835 68.682 116.262 64.5811 119.755Z" fill="#F5DF4D"/>
<path fill-rule="evenodd" clip-rule="evenodd" d="M87.5 45.6253C87.5 54.7302 83.9746 62.8676 78.4402 68.2557C81.7449 72.5522 83.75 78.1952 83.75 84.3753C83.75 97.8372 74.2361 108.75 62.5 108.75C50.764 108.75 41.25 97.8372 41.25 84.3753C41.25 78.1952 43.2551 72.5522 46.5598 68.2558C41.0254 62.8677 37.5 54.7303 37.5 45.6253C37.5 33.6817 43.5664 23.403 52.2762 18.811C31.6838 23.2894 16.0606 41.2013 14.9162 62.9768C15.9638 66.2876 17.5487 69.4728 19.6924 72.4111C22.2616 75.9326 25.4074 78.7897 28.921 80.9553C24.6724 80.5525 20.4936 79.5924 16.5024 78.0919C21.9799 98.4097 40.4355 113.354 62.3596 113.354C84.188 113.354 102.578 98.5398 108.144 78.3575C104.118 79.8285 99.9038 80.7623 95.617 81.1432C99.2038 78.9531 102.41 76.0549 105.022 72.4752C107.164 69.5387 108.752 66.3555 109.806 63.0433C108.699 41.4081 93.2999 23.5747 72.9254 18.9186C81.5271 23.5621 87.5 33.7741 87.5 45.6253Z" fill="#0072B5"/>
<path d="M56.2971 63.0002C54.9371 63.0002 53.9371 62.9402 53.2971 62.8202C52.6571 62.7002 52.3371 62.5602 52.3371 62.4002L53.5371 59.7902C53.9971 59.8702 55.1371 59.9502 56.9571 60.0302C58.7971 60.0902 61.3171 60.1202 64.5171 60.1202H65.0871C65.9471 60.1202 66.5571 59.9702 66.9171 59.6702C67.2771 59.3502 67.4571 58.8202 67.4571 58.0802V57.4802C67.4571 56.7802 67.3071 56.2802 67.0071 55.9802C66.7271 55.6802 66.0871 55.5302 65.0871 55.5302H58.1271C56.1071 55.5302 54.6371 55.1602 53.7171 54.4202C52.7971 53.6602 52.3371 52.4302 52.3371 50.7302V50.2502C52.3371 49.3702 52.4971 48.5602 52.8171 47.8202C53.1571 47.0802 53.7271 46.4902 54.5271 46.0502C55.3271 45.5902 56.4271 45.3602 57.8271 45.3602H65.9871C67.3471 45.3602 68.4471 45.4302 69.2871 45.5702C70.1271 45.7102 70.5471 45.8602 70.5471 46.0202L69.9471 48.5402C69.4271 48.4802 68.2471 48.4202 66.4071 48.3602C64.5671 48.2802 62.0971 48.2402 58.9971 48.2402L58.6671 48.2102C57.7471 48.2102 57.1271 48.4002 56.8071 48.7802C56.4871 49.1402 56.3171 49.6002 56.2971 50.1602V50.6702C56.2971 51.3302 56.4771 51.8302 56.8371 52.1702C57.2171 52.4902 57.8371 52.6502 58.6971 52.6502H65.3571C66.6371 52.6502 67.7271 52.7802 68.6271 53.0402C69.5271 53.3002 70.2171 53.7802 70.6971 54.4802C71.1771 55.1602 71.4171 56.1702 71.4171 57.5102V57.9902C71.4171 59.4902 71.0271 60.7002 70.2471 61.6202C69.4871 62.5402 68.1571 63.0002 66.2571 63.0002H56.2971Z" fill="#0072B5"/>
<path d="M56.2971 91.75C54.9371 91.75 53.9371 91.69 53.2971 91.57C52.6571 91.45 52.3371 91.31 52.3371 91.15L53.5371 88.54C53.9971 88.62 55.1371 88.7 56.9571 88.78C58.7971 88.84 61.3171 88.87 64.5171 88.87H65.0871C65.9471 88.87 66.5571 88.72 66.9171 88.42C67.2771 88.1 67.4571 87.57 67.4571 86.83V86.23C67.4571 85.53 67.3071 85.03 67.0071 84.73C66.7271 84.43 66.0871 84.28 65.0871 84.28H58.1271C56.1071 84.28 54.6371 83.91 53.7171 83.17C52.7971 82.41 52.3371 81.18 52.3371 79.48V79C52.3371 78.12 52.4971 77.31 52.8171 76.57C53.1571 75.83 53.7271 75.24 54.5271 74.8C55.3271 74.34 56.4271 74.11 57.8271 74.11H65.9871C67.3471 74.11 68.4471 74.18 69.2871 74.32C70.1271 74.46 70.5471 74.61 70.5471 74.77L69.9471 77.29C69.4271 77.23 68.2471 77.17 66.4071 77.11C64.5671 77.03 62.0971 76.99 58.9971 76.99L58.6671 76.96C57.7471 76.96 57.1271 77.15 56.8071 77.53C56.4871 77.89 56.3171 78.35 56.2971 78.91V79.42C56.2971 80.08 56.4771 80.58 56.8371 80.92C57.2171 81.24 57.8371 81.4 58.6971 81.4H65.3571C66.6371 81.4 67.7271 81.53 68.6271 81.79C69.5271 82.05 70.2171 82.53 70.6971 83.23C71.1771 83.91 71.4171 84.92 71.4171 86.26V86.74C71.4171 88.24 71.0271 89.45 70.2471 90.37C69.4871 91.29 68.1571 91.75 66.2571 91.75H56.2971Z" fill="#0072B5"/>
<path d="M58.2284 34.25C56.7884 34.25 55.4684 34.22 54.2684 34.16C53.0884 34.08 52.1384 33.95 51.4184 33.77C50.7184 33.59 50.3684 33.34 50.3684 33.02L51.8684 30.71C52.4484 30.97 53.2484 31.15 54.2684 31.25C55.3084 31.33 56.6784 31.37 58.3784 31.37H61.2584C62.1984 31.37 62.8184 31.15 63.1184 30.71C63.4184 30.25 63.5684 29.76 63.5684 29.24V19.01L63.3284 16.61H67.5284V28.88C67.5284 29.88 67.3984 30.79 67.1384 31.61C66.8984 32.43 66.3884 33.08 65.6084 33.56C64.8484 34.02 63.6784 34.25 62.0984 34.25H58.2284Z" fill="#0072B5"/>
</svg>
