<svg width="100" height="100" viewBox="0 0 100 100" fill="none" xmlns="http://www.w3.org/2000/svg">
<rect width="1282" height="906" transform="translate(-39 -39)" fill="white"/>
<rect width="100" height="100" fill="#C9E4CA"/>
<path d="M59.1244 100V44.16H99.2044V51.36H67.6044V67.44H89.3644V74.64H67.6044V92.8H99.5244V100H59.1244Z" fill="#3B6064"/>
<path d="M30.6444 84V28.16H71.1244V35.36H39.1244V51.44H61.2844V58.64H39.1244V84H30.6444Z" fill="#3B6064"/>
<path d="M21.2844 56.96C16.9644 56.96 13.2044 56.1333 10.0044 54.48C6.80438 52.8267 4.32438 50.4533 2.56438 47.36C0.804375 44.2667 -0.0756247 40.5067 -0.0756247 36.08H8.32438C8.32438 40.4533 9.47104 43.84 11.7644 46.24C14.0577 48.5867 17.2044 49.76 21.2044 49.76C24.6177 49.76 27.3644 48.9867 29.4444 47.44C31.5244 45.84 32.5644 43.6267 32.5644 40.8C32.5644 38.88 31.9777 37.3333 30.8044 36.16C29.6844 34.9867 28.1644 34.0267 26.2444 33.28C24.3777 32.5333 22.3244 31.8667 20.0844 31.28C17.8444 30.6933 15.5777 30.0533 13.2844 29.36C11.0444 28.6133 8.96438 27.68 7.04438 26.56C5.17771 25.44 3.65771 23.9467 2.48438 22.08C1.36438 20.2133 0.804375 17.84 0.804375 14.96C0.804375 11.92 1.60438 9.22666 3.20438 6.88C4.85771 4.48 7.12438 2.61333 10.0044 1.28C12.9377 -0.106669 16.3777 -0.800003 20.3244 -0.800003C24.1644 -0.800003 27.6044 -0.0800028 30.6444 1.36C33.6844 2.74667 36.111 4.74667 37.9244 7.36C39.791 9.92 40.751 13.0133 40.8044 16.64H32.3244C32.271 14.5067 31.6844 12.6933 30.5644 11.2C29.4977 9.65333 28.0577 8.48 26.2444 7.68C24.4844 6.82667 22.511 6.4 20.3244 6.4C17.1777 6.4 14.6177 7.14667 12.6444 8.64C10.671 10.1333 9.68438 12.16 9.68438 14.72C9.68438 16.5333 10.2444 17.9733 11.3644 19.04C12.5377 20.1067 14.0577 20.9867 15.9244 21.68C17.8444 22.32 19.9244 22.9333 22.1644 23.52C24.4577 24.0533 26.7244 24.6933 28.9644 25.44C31.2044 26.1333 33.2577 27.0933 35.1244 28.32C37.0444 29.4933 38.5644 31.0933 39.6844 33.12C40.8577 35.0933 41.4444 37.6267 41.4444 40.72C41.4444 44.0267 40.5644 46.9067 38.8044 49.36C37.0444 51.76 34.6444 53.6267 31.6044 54.96C28.5644 56.2933 25.1244 56.96 21.2844 56.96Z" fill="#3B6064"/>
</svg>
